<mxfile host="app.diagrams.net" modified="2023-09-09T07:52:44.563Z" agent="Mozilla/5.0 (Macintosh; Intel Mac OS X 10_15_7) AppleWebKit/537.36 (KHTML, like Gecko) Chrome/116.0.0.0 Safari/537.36 Edg/116.0.1938.76" version="21.7.4" etag="wEutPMJYlt-WWkw7nv8q" type="github">
  <diagram name="第 1 页" id="lyCwaSKCAAn5C1UGPejF">
    <mxGraphModel>
      <root>
        <mxCell id="0" />
        <mxCell id="1" parent="0" />
      </root>
    </mxGraphModel>
  </diagram>
</mxfile>
